<svg xmlns="http://www.w3.org/2000/svg" version="1.1" xmlns:xlink="http://www.w3.org/1999/xlink" xmlns:svgjs="http://svgjs.dev/svgjs" width="2000" height="1500" viewBox="0 0 2000 1500"><rect width="2000" height="1500" fill="#89939e"></rect><g transform="matrix(0.75,0,0,0.75,249.090909090909,278.98548387096787)"><svg viewBox="0 0 396 248" data-background-color="#89939e" preserveAspectRatio="xMidYMid meet" height="1252" width="2000" xmlns="http://www.w3.org/2000/svg" xmlns:xlink="http://www.w3.org/1999/xlink"><g id="tight-bounds" transform="matrix(1,0,0,1,0.2400000000000091,0.4000000000000057)"><svg viewBox="0 0 395.52 247.2" height="247.2" width="395.52"><g><svg></svg></g><g><svg viewBox="0 0 395.52 247.2" height="247.2" width="395.52"><mask id="6b914817-c9e5-46ce-af9c-31c592b2eb6e"><rect width="395.52" height="247.2" fill="white"></rect><g transform="matrix(1,0,0,1,0,54.35686711093689)" id="clone"><svg viewBox="0 0 395.52 138.4862657781262" height="138.4862657781262" width="395.52"><g><svg viewBox="0 0 395.52 138.4862657781262" height="138.4862657781262" width="395.52"><g><svg viewBox="0 0 395.52 138.4862657781262" height="138.4862657781262" width="395.52"><g><svg viewBox="0 0 395.52 138.4862657781262" height="138.4862657781262" width="395.52"><g id="SvgjsG3079"><svg viewBox="0 0 395.52 138.4862657781262" height="138.4862657781262" width="395.52" id="SvgjsSvg3078"><g><svg viewBox="0 0 395.52 138.4862657781262" height="138.4862657781262" width="395.52"><g transform="matrix(1,0,0,1,0,0)"><svg width="395.52" viewBox="-0.8045138611050002 -37.8 116.944513861105 41.599999999999994" height="138.4862657781262" data-palette-color="#000000"><path d="M19.2 0.55L19.2 0.55Q18.1 0.55 16.95-0.5 15.8-1.55 14.7-3.28 13.6-5 12.63-7.1 11.65-9.2 10.95-11.35L10.95-11.35Q10.75-11.95 10.5-12.8 10.25-13.65 10.25-14.45L10.25-14.45Q10.25-15 10.43-15.48 10.6-15.95 10.95-16.5L10.95-16.5Q11.95-18.1 13.38-19.55 14.8-21 16.5-22.13 18.2-23.25 20-23.88 21.8-24.5 23.5-24.5L23.5-24.5Q24.85-24.5 25.28-23.85 25.7-23.2 25.7-22.05L25.7-22.05Q25.7-20.95 25.43-20.13 25.15-19.3 24.75-18.85 24.35-18.4 24-18.4L24-18.4Q23.35-18.4 22.5-18.8 21.65-19.2 20.45-19.2L20.45-19.2Q18.4-19.2 16.68-17.88 14.95-16.55 14-14.95L14-14.95 14.5-17.1Q16.65-11.35 18.45-8.45 20.25-5.55 21.55-4.2L21.55-4.2Q22.4-3.35 23.05-3.03 23.7-2.7 23.7-2.2L23.7-2.2Q23.7-1.55 22.88-0.93 22.05-0.3 21 0.13 19.95 0.55 19.2 0.55ZM7.55 0.7L4.05 0.7Q3.15 0.7 2.65-0.4 2.15-1.5 2.2-2.95L2.2-2.95Q2.25-4.65 2.5-7 2.75-9.35 3-11.65L3-11.65 4.4-23.45Q4.7-25.7 4.55-27.45 4.4-29.2 4.15-30.55 3.9-31.9 3.9-32.85L3.9-32.85Q3.9-33.4 4.78-33.83 5.65-34.25 6.8-34.52 7.95-34.8 8.75-34.8L8.75-34.8Q9.6-34.8 10.25-33.58 10.9-32.35 10.9-30.75L10.9-30.75Q10.9-30.4 10.8-28.8 10.7-27.2 10.4-25.15L10.4-25.15 8.8-13.65Q8.3-10.05 8.1-6.48 7.9-2.9 7.55 0.7L7.55 0.7ZM46.7 0.5L43.05 0.5Q42.65 0.5 42.37-0.03 42.1-0.55 42-1.2 41.9-1.85 41.9-2.25L41.9-2.25Q41.9-2.95 42-4.05 42.1-5.15 42.25-6.38 42.4-7.6 42.55-8.5L42.55-8.5 43.4-13.7Q43.55-14.7 43.7-15.58 43.85-16.45 43.85-17.45L43.85-17.45Q43.85-18.2 43.55-18.6 43.25-19 42.75-19L42.75-19Q42.1-19 40.62-17.78 39.15-16.55 37.47-14.25 35.8-11.95 34.42-8.68 33.05-5.4 32.65-1.25L32.65-1.25 31.4-8.75Q33.45-14.55 36-18 38.55-21.45 41.05-22.98 43.55-24.5 45.45-24.5L45.45-24.5Q47.65-24.5 48.65-23.23 49.65-21.95 49.65-19.95L49.65-19.95Q49.65-18.85 49.47-17.65 49.3-16.45 49.1-15.15L49.1-15.15 46.7 0.5ZM28.2 0.7L28.2 0.7Q27.55 0.7 27.22 0.43 26.9 0.15 26.9-0.8 26.9-1.75 27.1-3.75L27.1-3.75 29.25-23.45Q29.55-26.3 30-29.13 30.45-31.95 30.6-34.8L30.6-34.8 34.1-34.8Q35.1-34.8 35.57-33.45 36.05-32.1 36.05-30.7L36.05-30.7Q36.05-29.6 35.95-28.73 35.85-27.85 35.65-26.9 35.45-25.95 35.1-24.5L35.1-24.5 31.9-9.85 33.55-11.9Q33.2-8.7 33-5.85 32.8-3 32.65-1.25L32.65-1.25Q32.65-0.75 31.77-0.3 30.9 0.15 29.85 0.43 28.8 0.7 28.2 0.7ZM58.1 0.8L58.1 0.8Q55.3 0.8 54.1-1.48 52.9-3.75 52.9-7.85L52.9-7.85Q52.9-11.5 53.97-14.55 55.05-17.6 56.9-19.83 58.75-22.05 61.2-23.28 63.65-24.5 66.4-24.5L66.4-24.5Q68.55-24.5 70.32-23.93 72.1-23.35 73.35-22.75L73.35-22.75 71.9-17.5Q70.55-18.4 68.87-19.15 67.2-19.9 65.77-20.33 64.35-20.75 63.65-20.75L63.65-20.75Q62.25-20.75 61.07-19.38 59.9-18 59.22-15.58 58.55-13.15 58.55-10L58.55-10Q58.55-7.1 58.97-5.6 59.4-4.1 60.35-4.1L60.35-4.1Q61-4.1 62.55-5.58 64.1-7.05 66.3-10.5 68.5-13.95 70.95-19.85L70.95-19.85 72.35-15.4Q69.65-9.4 67.2-5.85 64.75-2.3 62.5-0.75 60.25 0.8 58.1 0.8ZM73.55 0.5L70.05 0.5Q69.05 0.5 68.85-0.48 68.65-1.45 68.65-2.55L68.65-2.55Q68.65-3.4 68.87-4.65 69.1-5.9 69.45-7.35 69.8-8.8 70.2-10.2L70.2-10.2 71.3-13.95 69.85-15.25 71.05-22.8Q72.65-23.05 73.87-23.45 75.1-23.85 75.92-24.15 76.75-24.45 77.1-24.45L77.1-24.45Q77.65-24.45 77.65-23.85L77.65-23.85Q77.65-23.6 77.02-21.73 76.4-19.85 75.67-16.95 74.95-14.05 74.6-10.65L74.6-10.65 73.55 0.5ZM85.94 0.7L82.44 0.7Q81.54 0.7 81.04-0.4 80.54-1.5 80.59-2.95L80.59-2.95Q80.64-4.65 80.89-7 81.14-9.35 81.39-11.65L81.39-11.65 82.79-23.45Q83.09-25.7 82.94-27.45 82.79-29.2 82.54-30.55 82.29-31.9 82.29-32.85L82.29-32.85Q82.29-33.4 83.17-33.83 84.04-34.25 85.19-34.52 86.34-34.8 87.14-34.8L87.14-34.8Q87.99-34.8 88.64-33.58 89.29-32.35 89.29-30.75L89.29-30.75Q89.29-30.4 89.19-28.8 89.09-27.2 88.79-25.15L88.79-25.15 87.19-13.65Q86.69-10.05 86.49-6.48 86.29-2.9 85.94 0.7L85.94 0.7ZM97.54 0.8L94.04 0.8Q93.19 0.8 92.94-0.18 92.69-1.15 92.69-2.2L92.69-2.2Q92.69-4 92.87-5.4 93.04-6.8 93.24-8.5L93.24-8.5 95.04-24.55 98.54-24.55Q99.54-24.55 99.84-23.45 100.14-22.35 100.14-20.95L100.14-20.95Q100.14-20.25 100.04-19.48 99.94-18.7 99.74-17.1L99.74-17.1 98.79-8.95Q98.49-6.35 98.24-4.6 97.99-2.85 97.84-1.6 97.69-0.35 97.54 0.8L97.54 0.8ZM98.44-27.4L98.44-27.4Q97.04-27.4 96.02-28.35 94.99-29.3 94.99-30.85L94.99-30.85Q94.99-32.7 96.19-33.73 97.39-34.75 98.94-34.75L98.94-34.75Q100.39-34.75 101.37-33.9 102.34-33.05 102.34-31.35L102.34-31.35Q102.34-29.65 101.19-28.53 100.04-27.4 98.44-27.4ZM109.79 0.7L106.29 0.7Q105.39 0.7 104.89-0.4 104.39-1.5 104.44-2.95L104.44-2.95Q104.49-4.65 104.74-7 104.99-9.35 105.24-11.65L105.24-11.65 106.64-23.45Q106.94-25.7 106.79-27.45 106.64-29.2 106.39-30.55 106.14-31.9 106.14-32.85L106.14-32.85Q106.14-33.4 107.01-33.83 107.89-34.25 109.04-34.52 110.19-34.8 110.99-34.8L110.99-34.8Q111.84-34.8 112.49-33.58 113.14-32.35 113.14-30.75L113.14-30.75Q113.14-30.4 113.04-28.8 112.94-27.2 112.64-25.15L112.64-25.15 111.04-13.65Q110.54-10.05 110.34-6.48 110.14-2.9 109.79 0.7L109.79 0.7Z" opacity="1" transform="matrix(1,0,0,1,0,0)" fill="black" class="wordmark-text-0" id="SvgjsPath3077" stroke-width="5" stroke="black" stroke-linejoin="round"></path></svg></g></svg></g></svg></g></svg></g><g></g></svg></g></svg></g></svg></g></mask><g mask="url(#6b914817-c9e5-46ce-af9c-31c592b2eb6e)"><g><path d="M244 246.848v0c-4.688 0-10.127-3.001-16.316-9.002-6.236-5.954-12.8-13.972-19.691-24.051-6.939-10.08-13.972-21.333-21.099-33.757-7.173-12.424-14.159-25.083-20.957-37.977v0c-1.172-2.579-2.391-5.275-3.657-8.088-1.313-2.813-1.969-5.861-1.969-9.142v0c0-3.985 1.008-8.791 3.024-14.417 1.969-5.626 6.001-12.776 12.096-21.45 6.095-8.674 15.472-19.574 28.131-32.702v0l23.56-24.263c9.846-10.315 18.941-18.168 27.287-23.56 8.299-5.392 16.55-8.088 24.755-8.087v0c7.267 0 12.26 1.641 14.979 4.923 2.672 3.282 4.009 7.97 4.009 14.065v0c0 5.626-0.703 10.713-2.11 15.261-1.407 4.595-3.165 8.181-5.274 10.76-2.11 2.579-4.337 3.868-6.681 3.868v0c-2.344 0-5.04-0.422-8.088-1.266-3.048-0.797-6.681-1.196-10.901-1.195v0c-2.813 0-5.978 0.75-9.494 2.25-3.516 1.547-7.736 4.431-12.659 8.65-4.923 4.22-11.135 10.666-18.636 19.34v0l-38.329 43.955 6.33-23.56c7.267 19.692 15.777 37.391 25.528 53.097 9.705 15.706 18.895 28.717 27.569 39.032 8.674 10.315 15.003 17.23 18.988 20.746v0c5.392 4.454 9.682 7.548 12.87 9.283 3.141 1.782 5.415 3.024 6.822 3.728 1.407 0.703 2.11 1.993 2.109 3.868v0c0 2.11-1.453 4.337-4.36 6.681-2.954 2.344-6.658 4.501-11.112 6.47-4.454 2.016-9.072 3.61-13.854 4.782-4.829 1.172-9.119 1.758-12.87 1.758zM135.696 247.2h-24.614c-3.282 0-5.907-1.407-7.877-4.22-2.016-2.813-3.493-6.447-4.43-10.9-0.938-4.454-1.407-8.908-1.407-13.362v0c0-9.611 0.586-18.871 1.758-27.78 1.172-8.908 2.227-18.519 3.165-28.834v0l16.878-162.104h24.615c6.095 0 10.151 2.297 12.167 6.892 1.969 4.548 2.954 9.986 2.953 16.316v0c0 5.626-0.234 10.666-0.703 15.12-0.469 4.454-1.102 9.846-1.899 16.176-0.844 6.329-1.852 15.003-3.024 26.021v0z" fill="#000000" fill-rule="nonzero" stroke="none" stroke-width="1" stroke-linecap="butt" stroke-linejoin="miter" stroke-miterlimit="10" stroke-dasharray="" stroke-dashoffset="0" font-family="none" font-weight="none" font-size="none" text-anchor="none" style="mix-blend-mode: normal" data-fill-palette-color="tertiary"></path></g></g><g transform="matrix(1,0,0,1,0,54.35686711093689)"><svg viewBox="0 0 395.52 138.4862657781262" height="138.4862657781262" width="395.52"><g><svg viewBox="0 0 395.52 138.4862657781262" height="138.4862657781262" width="395.52"><g><svg viewBox="0 0 395.52 138.4862657781262" height="138.4862657781262" width="395.52"><g><svg viewBox="0 0 395.52 138.4862657781262" height="138.4862657781262" width="395.52"><g id="textblocktransform"><svg viewBox="0 0 395.52 138.4862657781262" height="138.4862657781262" width="395.52" id="textblock"><g><svg viewBox="0 0 395.52 138.4862657781262" height="138.4862657781262" width="395.52"><g transform="matrix(1,0,0,1,0,0)"><svg width="395.52" viewBox="-0.8045138611050002 -37.8 116.944513861105 41.599999999999994" height="138.4862657781262" data-palette-color="#000000"><path d="M19.2 0.55L19.2 0.55Q18.1 0.55 16.95-0.5 15.8-1.55 14.7-3.28 13.6-5 12.63-7.1 11.65-9.2 10.95-11.35L10.95-11.35Q10.75-11.95 10.5-12.8 10.25-13.65 10.25-14.45L10.25-14.45Q10.25-15 10.43-15.48 10.6-15.95 10.95-16.5L10.95-16.5Q11.95-18.1 13.38-19.55 14.8-21 16.5-22.13 18.2-23.25 20-23.88 21.8-24.5 23.5-24.5L23.5-24.5Q24.85-24.5 25.28-23.85 25.7-23.2 25.7-22.05L25.7-22.05Q25.7-20.95 25.43-20.13 25.15-19.3 24.75-18.85 24.35-18.4 24-18.4L24-18.4Q23.35-18.4 22.5-18.8 21.65-19.2 20.45-19.2L20.45-19.2Q18.4-19.2 16.68-17.88 14.95-16.55 14-14.95L14-14.95 14.5-17.1Q16.65-11.35 18.45-8.45 20.25-5.55 21.55-4.2L21.55-4.2Q22.4-3.35 23.05-3.03 23.7-2.7 23.7-2.2L23.7-2.2Q23.7-1.55 22.88-0.93 22.05-0.3 21 0.13 19.95 0.55 19.2 0.55ZM7.55 0.7L4.05 0.7Q3.15 0.7 2.65-0.4 2.15-1.5 2.2-2.95L2.2-2.95Q2.25-4.65 2.5-7 2.75-9.35 3-11.65L3-11.65 4.4-23.45Q4.7-25.7 4.55-27.45 4.4-29.2 4.15-30.55 3.9-31.9 3.9-32.85L3.9-32.85Q3.9-33.4 4.78-33.83 5.65-34.25 6.8-34.52 7.95-34.8 8.75-34.8L8.75-34.8Q9.6-34.8 10.25-33.58 10.9-32.35 10.9-30.75L10.9-30.75Q10.9-30.4 10.8-28.8 10.7-27.2 10.4-25.15L10.4-25.15 8.8-13.65Q8.3-10.05 8.1-6.48 7.9-2.9 7.55 0.7L7.55 0.7ZM46.7 0.5L43.05 0.5Q42.65 0.5 42.37-0.03 42.1-0.55 42-1.2 41.9-1.85 41.9-2.25L41.9-2.25Q41.9-2.95 42-4.05 42.1-5.15 42.25-6.38 42.4-7.6 42.55-8.5L42.55-8.5 43.4-13.7Q43.55-14.7 43.7-15.58 43.85-16.45 43.85-17.45L43.85-17.45Q43.85-18.2 43.55-18.6 43.25-19 42.75-19L42.75-19Q42.1-19 40.62-17.78 39.15-16.55 37.47-14.25 35.8-11.95 34.42-8.68 33.05-5.4 32.65-1.25L32.65-1.25 31.4-8.75Q33.45-14.55 36-18 38.55-21.45 41.05-22.98 43.55-24.5 45.45-24.5L45.45-24.5Q47.65-24.5 48.65-23.23 49.65-21.95 49.65-19.95L49.65-19.95Q49.65-18.85 49.47-17.65 49.3-16.45 49.1-15.15L49.1-15.15 46.7 0.5ZM28.2 0.7L28.2 0.7Q27.55 0.7 27.22 0.43 26.9 0.15 26.9-0.8 26.9-1.75 27.1-3.75L27.1-3.75 29.25-23.45Q29.55-26.3 30-29.13 30.45-31.95 30.6-34.8L30.6-34.8 34.1-34.8Q35.1-34.8 35.57-33.45 36.05-32.1 36.05-30.7L36.05-30.7Q36.05-29.6 35.95-28.73 35.85-27.85 35.65-26.9 35.45-25.95 35.1-24.5L35.1-24.5 31.9-9.85 33.55-11.9Q33.2-8.7 33-5.85 32.8-3 32.65-1.25L32.65-1.25Q32.65-0.75 31.77-0.3 30.9 0.15 29.85 0.43 28.8 0.7 28.2 0.7ZM58.1 0.8L58.1 0.8Q55.3 0.8 54.1-1.48 52.9-3.75 52.9-7.85L52.9-7.85Q52.9-11.5 53.97-14.55 55.05-17.6 56.9-19.83 58.75-22.05 61.2-23.28 63.65-24.5 66.4-24.5L66.4-24.5Q68.55-24.5 70.32-23.93 72.1-23.35 73.35-22.75L73.35-22.75 71.9-17.5Q70.55-18.4 68.87-19.15 67.2-19.9 65.77-20.33 64.35-20.75 63.65-20.75L63.65-20.75Q62.25-20.75 61.07-19.38 59.9-18 59.22-15.58 58.55-13.15 58.55-10L58.55-10Q58.55-7.1 58.97-5.6 59.4-4.1 60.35-4.1L60.35-4.1Q61-4.1 62.55-5.58 64.1-7.05 66.3-10.5 68.5-13.95 70.95-19.85L70.95-19.85 72.35-15.4Q69.65-9.4 67.2-5.85 64.75-2.3 62.5-0.75 60.25 0.8 58.1 0.8ZM73.55 0.5L70.05 0.5Q69.05 0.5 68.85-0.48 68.65-1.45 68.65-2.55L68.65-2.55Q68.65-3.4 68.87-4.65 69.1-5.9 69.45-7.35 69.8-8.8 70.2-10.2L70.2-10.2 71.3-13.95 69.85-15.25 71.05-22.8Q72.65-23.05 73.87-23.45 75.1-23.85 75.92-24.15 76.75-24.45 77.1-24.45L77.1-24.45Q77.65-24.45 77.65-23.85L77.65-23.85Q77.65-23.6 77.02-21.73 76.4-19.85 75.67-16.95 74.95-14.05 74.6-10.65L74.6-10.65 73.55 0.5ZM85.94 0.7L82.44 0.7Q81.54 0.7 81.04-0.4 80.54-1.5 80.59-2.95L80.59-2.95Q80.64-4.65 80.89-7 81.14-9.35 81.39-11.65L81.39-11.65 82.79-23.45Q83.09-25.7 82.94-27.45 82.79-29.2 82.54-30.55 82.29-31.9 82.29-32.85L82.29-32.85Q82.29-33.4 83.17-33.83 84.04-34.25 85.19-34.52 86.34-34.8 87.14-34.8L87.14-34.8Q87.99-34.8 88.64-33.58 89.29-32.35 89.29-30.75L89.29-30.75Q89.29-30.4 89.19-28.8 89.09-27.2 88.79-25.15L88.79-25.15 87.19-13.65Q86.69-10.05 86.49-6.48 86.29-2.9 85.94 0.7L85.94 0.7ZM97.54 0.8L94.04 0.8Q93.19 0.8 92.94-0.18 92.69-1.15 92.69-2.2L92.69-2.2Q92.69-4 92.87-5.4 93.04-6.8 93.24-8.5L93.24-8.5 95.04-24.55 98.54-24.55Q99.54-24.55 99.84-23.45 100.14-22.35 100.14-20.95L100.14-20.95Q100.14-20.25 100.04-19.48 99.94-18.7 99.74-17.1L99.74-17.1 98.79-8.95Q98.49-6.35 98.24-4.6 97.99-2.85 97.84-1.6 97.69-0.35 97.54 0.8L97.54 0.8ZM98.44-27.4L98.44-27.4Q97.04-27.4 96.02-28.35 94.99-29.3 94.99-30.85L94.99-30.85Q94.99-32.7 96.19-33.73 97.39-34.75 98.94-34.75L98.94-34.75Q100.39-34.75 101.37-33.9 102.34-33.05 102.34-31.35L102.34-31.35Q102.34-29.65 101.19-28.53 100.04-27.4 98.44-27.4ZM109.79 0.7L106.29 0.7Q105.39 0.7 104.89-0.4 104.39-1.5 104.44-2.95L104.44-2.95Q104.49-4.65 104.74-7 104.99-9.35 105.24-11.65L105.24-11.65 106.64-23.45Q106.94-25.7 106.79-27.45 106.64-29.2 106.39-30.55 106.14-31.9 106.14-32.85L106.14-32.85Q106.14-33.4 107.01-33.83 107.89-34.25 109.04-34.52 110.19-34.8 110.99-34.8L110.99-34.8Q111.84-34.8 112.49-33.58 113.14-32.35 113.14-30.75L113.14-30.75Q113.14-30.4 113.04-28.8 112.94-27.2 112.64-25.15L112.64-25.15 111.04-13.65Q110.54-10.05 110.34-6.48 110.14-2.9 109.79 0.7L109.79 0.7Z" opacity="1" transform="matrix(1,0,0,1,0,0)" fill="#000000" class="wordmark-text-0" data-fill-palette-color="primary" id="text-0"></path></svg></g></svg></g></svg></g></svg></g><g></g></svg></g></svg></g></svg></g></svg></g><defs></defs></svg><rect width="395.52" height="247.2" fill="none" stroke="none" visibility="hidden"></rect></g></svg></g></svg>